# AST/ASF file generated using VICON BodyLanguage
# -----------------------------------------------
:version 1.10
:name VICON
:units
  mass 1.0
  length 0.45
  angle deg
:documentation
   .ast/.asf automatically generated from VICON data using
   VICON BodyBuilder and BodyLanguage model FoxedUp or BRILLIANT.MOD
:root
   order TX TY TZ RX RY RZ
   axis XYZ
   position 0 0 0  
   orientation 0 0 0 
:bonedata
  begin
     id 1 
     name lhipjoint
     direction 0.57768 -0.667037 0.470475 
     length 2.36008 
     axis 0 0 0  XYZ
  end
  begin
     id 2 
     name lfemur
     direction 0.34202 -0.939693 0  
     length 6.97235  
     axis 0 0 20  XYZ
    dof rx ry rz
    limits (-160.0 20.0)
           (-70.0 70.0)
           (-60.0 70.0)
  end
  begin
     id 3 
     name ltibia
     direction 0.34202 -0.939693 0   
     length 6.93428   
     axis 0 0 20   XYZ
    dof rx
    limits (-10.0 170.0)
  end
  begin
     id 4 
     name lfoot
     direction 0.133018 -0.365463 0.921272   
     length 2.18603   
     axis -90 7.62852e-016 20   XYZ
    dof rx rz
    limits (-45.0 90.0)
           (-70.0 20.0)
  end
  begin
     id 5 
     name ltoes
     direction 1.53519e-011 -4.22055e-011 1   
     length 1.07924   
     axis -90 7.62852e-016 20   XYZ
    dof rx
    limits (-90.0 20.0)
  end
  begin
     id 6 
     name rhipjoint
     direction -0.577712 -0.667019 0.470462   
     length 2.36015  
     axis 0 0 0  XYZ 
  end
  begin
     id 7 
     name rfemur
     direction -0.34202 -0.939693 0   
     length 6.71195   
     axis 0 0 -20   XYZ
    dof rx ry rz
    limits (-160.0 20.0)
           (-70.0 70.0)
           (-70.0 60.0)
  end
  begin
     id 8 
     name rtibia
     direction -0.34202 -0.939693 0   
     length 7.04592   
     axis 0 0 -20   XYZ
    dof rx
    limits (-10.0 170.0)
 end
 begin
     id 9 
     name rfoot
     direction -0.113796 -0.312651 0.943027   
     length 2.03846  
     axis -90 -7.62852e-016 -20   XYZ
    dof rx rz
    limits (-45.0 90.0)
           (-20.0 70.0)
  end
  begin
     id 10 
     name rtoes
     direction -1.53586e-011 -4.218e-011 1   
     length 1.01562   
     axis -90 -7.62852e-016 -20   XYZ
    dof rx
    limits (-90.0 20.0)
  end
  begin
     id 11 
     name lowerback
     direction -0.0417299 0.991937 -0.119667   
     length 2.05257   
     axis 0 0 0   XYZ
    dof rx ry rz
    limits (-20.0 45.0)
           (-30.0 30.0)
           (-30.0 30.0)
  end
  begin
     id 12 
     name upperback
     direction -0.00017666 0.999999 0.00105178   
     length 2.05693   
     axis 0 0 0   XYZ
    dof rx ry rz
    limits (-20.0 45.0)
           (-30.0 30.0)
           (-30.0 30.0)
  end
  begin
     id 13 
     name thorax
     direction 0.0185169 0.998203 0.0569866   
     length 2.0932   
     axis 0 0 0   XYZ
    dof rx ry rz
    limits (-20.0 45.0)
           (-30.0 30.0)
           (-30.0 30.0)
  end
  begin
     id 14 
     name lowerneck
     direction -0.0212406 0.982645 0.184277   
     length 1.72509   
     axis 0 0 0   XYZ
    dof rx ry rz
    limits (-20.0 45.0)
           (-30.0 30.0)
           (-30.0 30.0)
  end
  begin
     id 15 
     name upperneck
     direction 0.00528579 0.965323 -0.261004   
     length 1.76294   
     axis 0 0 0   XYZ
    dof rx ry rz
    limits (-20.0 45.0)
           (-30.0 30.0)
           (-30.0 30.0)
  end
  begin
     id 16
     name head
     direction 0.00695421 0.994078 -0.108445  
     length 1.78678  
     axis 0 0 0   XYZ
    dof rx ry rz
    limits (-20.0 45.0)
           (-30.0 30.0)
           (-30.0 30.0)
  end
  begin
     id 17 
     name lclavicle
     direction 0.97277 0.211305 -0.095232  
     length 3.84823  
     axis 0 0 0   XYZ
    dof ry rz
    limits (-20.0 10.0)
           (0.0 20.0)
  end
  begin
     id 18 
     name lhumerus
     direction 1 -4.48957e-011 -1.98313e-027   
     length 4.97185   
     axis 180 -30 -90   XYZ
    dof rx ry rz
    limits (-60.0 90.0)
           (-90.0 90.0)
           (-90.0 90.0)
  end
  begin
     id 19
     name lradius
     direction 1 -4.4898e-011 7.31063e-027   
     length 3.35811   
     axis 180 -30 -90   XYZ
    dof rx
    limits (-10.0 170.0)
  end
  begin
     id 20
     name lwrist
     direction 1 -4.48938e-011 9.95048e-027   
     length 1.67905   
     axis -8.75986e-015 90 90   XYZ
    dof ry
    limits (-180.0 0.0)
 end
  begin
     id 21 
     name lhand
     direction 1 -4.4901e-011 1.9901e-026   
     length 0.622776   
     axis -1.26985e-014 90 90   XYZ
    dof rx rz
    limits (-90.0 90.0)
           (-45.0 45.0)
  end
  begin
     id 22 
     name lfingers
     direction 1 -4.48961e-011 3.98019e-026   
     length 0.502098   
     axis -2.5397e-014 90 90   XYZ
    dof rx
    limits (0.0 90.0)
  end
  begin
     id 23
     name lthumb
     direction 0.707107 -6.34933e-011 0.707107   
     length 0.720915   
     axis -90 45 2.85299e-015   XYZ
    dof rx rz
    limits (-45.0 45.0)
           (-45.0 45.0)
  end
  begin
     id 24 
     name rclavicle
     direction -0.990867 0.133739 -0.0172226   
     length 3.78845  
     axis 0 0 0   XYZ 
    dof ry rz
    limits (-10.0 20.0)
           (-20.0 0.0)
  end
  begin
     id 25 
     name rhumerus
     direction -1 -4.48972e-011 -1.99267e-027  
     length 4.96493   
     axis 180 30 90   XYZ
    dof rx ry rz
    limits (-90.0 60.0)
           (-90.0 90.0)
           (-90.0 90.0)
  end
  begin
     id 26 
     name rradius
     direction -1 -4.48969e-011 8.96093e-027   
     length 3.34929   
     axis 180 30 90   XYZ
    dof rx
    limits (-10.0 170.0)
  end
  begin
     id 27 
     name rwrist
     direction -1 -4.48953e-011 9.95048e-027   
     length 1.67464   
     axis -8.75986e-015 -90 -90   XYZ
    dof ry
    limits (-180.0 0.0)
  end
  begin
     id 28
     name rhand
     direction -1 -4.49001e-011 1.9901e-026   
     length 0.638041   
     axis -1.26985e-014 -90 -90   XYZ
    dof rx rz
    limits (-90.0 90.0)
           (-45.0 45.0)
  end
  begin
     id 29
     name rfingers
     direction -1 -4.48967e-011 3.98019e-026   
     length 0.514405   
     axis -2.5397e-014 -90 -90   XYZ
    dof rx
    limits (0.0 90.0)
  end
  begin
     id 30
     name rthumb
     direction -0.707107 -6.34904e-011 0.707107   
     length 0.738586   
     axis -90 -45 -2.85299e-015   XYZ
    dof rx rz
    limits (-45.0 45.0)
           (-45.0 45.0)
  end
:hierarchy
  begin
    root lhipjoint rhipjoint lowerback
    lhipjoint lfemur
    lfemur ltibia
    ltibia lfoot
    lfoot ltoes
    rhipjoint rfemur
    rfemur rtibia
    rtibia rfoot
    rfoot rtoes
    lowerback upperback
    upperback thorax
    thorax lowerneck lclavicle rclavicle
    lowerneck upperneck
    upperneck head
    lclavicle lhumerus
    lhumerus lradius
    lradius lwrist
    lwrist lhand lthumb
    lhand lfingers
    rclavicle rhumerus
    rhumerus rradius
    rradius rwrist
    rwrist rhand rthumb
    rhand rfingers
  end

#!OML:ASF E:\Mandelcareful walks\Project 1\Capture day 1\Session 1\Subject1.ASF
:FULLY-SPECIFIED
:DEGREES
442
root -1.44324 13.7433 -7.218 377.894 4.13306 731.289
lowerback 40.2432 -2.88005 2.90028
upperback 9.36455 -2.36384 -1.09331
thorax -9.11908 -1.01146 -1.71253
lowerneck -31.1643 12.1889 6.44453
upperneck 18.4646 19.7308 -19.3109
head 14.412 6.64404 -4.22841
rclavicle -1.59028e-015 -9.54166e-015
rhumerus -22.9842 58.7355 -74.1795
rradius 77.1273
rwrist -88.7283
rhand -10.6625 -36.8966
rfingers 7.12502
rthumb 15.3456 -786.307
lclavicle -1.59028e-015 -9.54166e-015
lhumerus 93.6248 -67.9772 -6.94749
lradius 56.7376
lwrist -2.85061
lhand -26.6087 -23.4671
lfingers 7.12502
lthumb -0.0421616 6.5126
rfemur -51.5224 -2.5412 -9.68116
rtibia 76.8242
rfoot -32.6381 -18.8369
rtoes -28.2672
lfemur -58.8784 13.475 -12.6694
ltibia 65.1906
lfoot -14.7856 -0.520439
ltoes -20.1225
443
root -1.26394 13.7885 -7.13142 377.825 4.19387 730.805
lowerback 40.0808 -2.54422 2.49191
upperback 9.28817 -2.13151 -1.13059
thorax -9.13572 -0.906624 -1.63882
lowerneck -30.9568 12.3377 6.49326
upperneck 18.2098 19.9406 -19.5218
head 14.3391 6.74359 -4.25964
rclavicle -2.14687e-014 -2.38542e-014
rhumerus -23.3157 58.047 -75.8823
rradius 73.7029
rwrist -89.187
rhand -7.41818 -36.1977
rfingers 7.12502
rthumb 18.4686 -785.341
lclavicle -2.14687e-014 -2.38542e-014
lhumerus 94.5049 -68.3777 -6.74356
lradius 55.2585
lwrist -3.71831
lhand -25.6889 -23.5734
lfingers 7.12502
lthumb 0.846221 6.40471
rfemur -50.2728 -2.53798 -9.76229
rtibia 75.5292
rfoot -32.2531 -19.1763
rtoes -29.348
lfemur -58.8889 13.1956 -12.9957
ltibia 65.9027
lfoot -15.7155 0.248534
ltoes -23.3754
444
root -1.09586 13.8342 -7.05196 377.83 4.4281 730.221
lowerback 40.0119 -2.22165 2.29437
upperback 9.14573 -1.83613 -1.23293
thorax -9.26192 -0.77383 -1.7671
lowerneck -30.7743 12.4493 6.71703
upperneck 17.8472 19.999 -19.7518
head 14.2244 6.79557 -4.3619
rclavicle 8.74653e-015 1.82882e-014
rhumerus -23.813 56.9301 -77.7454
rradius 70.4574
rwrist -89.2705
rhand -4.85367 -35.7042
rfingers 7.12502
rthumb 20.934 -784.595
lclavicle 8.74653e-015 1.82882e-014
lhumerus 95.8079 -68.7812 -7.42576
lradius 54.4237
lwrist -4.56887
lhand -24.3941 -22.6529
lfingers 7.12502
lthumb 2.09675 7.3165
rfemur -49.065 -2.66132 -9.61241
rtibia 74.2525
rfoot -31.99 -19.3133
rtoes -29.8607
lfemur -59.0033 12.9654 -13.0734
ltibia 66.5561
lfoot -16.4388 0.562398
ltoes -24.3107
445
root -0.93043 13.8765 -6.97978 377.93 4.8337 729.889
lowerback 39.8311 -1.95603 2.21827
upperback 9.00626 -1.5894 -1.55371
thorax -9.36204 -0.65935 -2.17435
lowerneck -30.7477 12.4413 7.03957
upperneck 17.6691 19.7858 -19.6976
head 14.1339 6.74805 -4.4424
rclavicle 7.95139e-015 1.59028e-014
rhumerus -24.4083 55.0671 -79.8889
rradius 67.3678
rwrist -88.8493
rhand -3.09623 -35.131
rfingers 7.12502
rthumb 22.6216 -783.825
lclavicle 7.95139e-015 1.59028e-014
lhumerus 98.5495 -69.0396 -9.75703
lradius 53.939
lwrist -5.04546
lhand -23.0728 -21.1601
lfingers 7.12502
lthumb 3.37275 8.79294
rfemur -47.7738 -2.44093 -9.78219
rtibia 72.9193
rfoot -31.8746 -19.6305
rtoes -29.8557
lfemur -59.1977 12.4774 -13.2814
ltibia 67.1403
lfoot -17.0449 0.691805
ltoes -24.0233
446
root -0.755632 13.9184 -6.90355 378.023 5.24057 729.558
lowerback 39.6112 -1.70229 2.00673
upperback 8.85465 -1.39154 -1.7281
thorax -9.45524 -0.568781 -2.33448
lowerneck -30.7173 12.4018 7.09831
upperneck 17.5772 19.6322 -19.5462
head 14.044 6.71315 -4.43017
rclavicle -2.06736e-014 -7.95139e-016
rhumerus -25.0954 53.4679 -81.5465
rradius 65.0592
rwrist -88.4131
rhand -2.37028 -34.9079
rfingers 7.12502
rthumb 23.3182 -783.516
lclavicle -2.06736e-014 -7.95139e-016
lhumerus 100.426 -69.4219 -11.0274
lradius 53.5188
lwrist -5.44011
lhand -21.3426 -20.1058
lfingers 7.12502
lthumb 5.04358 9.81422
rfemur -46.446 -2.03549 -9.97355
rtibia 71.5334
rfoot -31.6577 -20.3827
rtoes -30.2305
lfemur -59.2845 11.8156 -13.3856
ltibia 67.6318
lfoot -17.6754 0.68017
ltoes -22.6965
447
root -0.570046 13.9615 -6.81826 378.04 5.54673 728.985
lowerback 39.4498 -1.51617 1.43935
upperback 8.72705 -1.35856 -1.47532
thorax -9.52588 -0.555556 -1.78225
lowerneck -30.6228 12.5987 6.62798
upperneck 17.2237 20.0601 -19.6009
head 13.9042 6.89132 -4.25552
rclavicle -1.66979e-014 -1.98785e-014
rhumerus -25.4979 53.1592 -82.2075
rradius 63.4308
rwrist -88.21
rhand -2.18854 -35.3356
rfingers 7.12502
rthumb 23.4925 -783.921
lclavicle -1.66979e-014 -1.98785e-014
lhumerus 99.08 -70.0206 -8.92534
lradius 53.1178
lwrist -5.92758
lhand -19.3052 -18.7037
lfingers 7.12502
lthumb 7.01054 11.1602
rfemur -45.1137 -1.97424 -9.83794
rtibia 70.071
rfoot -31.1246 -21.1303
rtoes -31.1487
lfemur -59.243 11.3959 -13.3172
ltibia 68.077
lfoot -18.3757 0.503932
ltoes -21.5593
448
root -0.381642 14.0071 -6.7347 377.997 5.52856 728.589
lowerback 39.3542 -1.0667 0.558441
upperback 8.63887 -1.13588 -1.30626
thorax -9.56622 -0.449931 -1.23335
lowerneck -30.5242 12.779 6.28442
upperneck 16.8805 20.3927 -19.6092
head 13.7574 7.04503 -4.11013
rclavicle 1.74931e-014 2.10712e-014
rhumerus -26.1536 52.6815 -82.8284
rradius 62.131
rwrist -87.8896
rhand -2.09113 -35.9989
rfingers 7.12502
rthumb 23.586 -784.573
lclavicle 1.74931e-014 2.10712e-014
lhumerus 98.8246 -70.4384 -8.05748
lradius 52.9181
lwrist -6.14686
lhand -18.5 -17.4649
lfingers 7.12502
lthumb 7.78772 12.3717
rfemur -43.8294 -1.8889 -9.99238
rtibia 68.5298
rfoot -30.6383 -21.3674
rtoes -31.283
lfemur -58.9723 11.0608 -13.5276
ltibia 68.507
lfoot -19.2 0.604822
ltoes -21.145
449
root -0.191914 14.0582 -6.66174 378.085 5.52185 728.398
lowerback 39.1387 -0.504972 -0.0299808
upperback 8.55028 -0.710249 -1.5268
thorax -9.58129 -0.248792 -1.33689
lowerneck -30.4885 12.7998 6.60892
upperneck 16.821 20.2275 -19.4809
head 13.7122 7.01783 -4.15295
rclavicle -2.06736e-014 -5.1684e-015
rhumerus -27.265 51.4089 -83.9828
rradius 61.1484
rwrist -87.4851
rhand -2.4375 -36.7295
rfingers 7.12502
rthumb 23.2537 -785.345
lclavicle -2.06736e-014 -5.1684e-015
lhumerus 102.179 -70.5322 -11.1213
lradius 53.0435
lwrist -6.08211
lhand -18.0125 -16.7873
lfingers 7.12502
lthumb 8.25827 13.0313
rfemur -42.6299 -1.41881 -10.4002
rtibia 66.9453
rfoot -30.2642 -21.7676
rtoes -30.6069
lfemur -58.6951 9.91283 -13.6586
ltibia 68.8897
lfoot -20.1223 1.35916
ltoes -20.3562
450
root 0.0192173 14.107 -6.57499 378.111 6.05158 727.876
lowerback 38.8665 -0.450354 0.333214
upperback 8.51883 -0.540664 -1.82812
thorax -9.53209 -0.172585 -1.91876
lowerneck -30.4864 12.8789 7.13404
upperneck 16.8714 20.0901 -19.3768
head 13.7481 7.001 -4.23087
rclavicle -1.35174e-014 1.74931e-014
rhumerus -28.2996 50.6485 -85.2261
rradius 60.3607
rwrist -87.3094
rhand -3.45094 -37.3668
rfingers 7.12502
rthumb 22.2811 -786.102
lclavicle -1.35174e-014 1.74931e-014
lhumerus 106.035 -70.4482 -15.0051
lradius 53.3157
lwrist -5.86257
lhand -13.7023 -14.8307
lfingers 7.12502
lthumb 12.4161 14.7806
rfemur -41.0565 -1.11436 -10.309
rtibia 65.2861
rfoot -29.8226 -22.6223
rtoes -30.2311
lfemur -58.6561 9.2592 -13.8307
ltibia 69.2923
lfoot -20.8144 1.73007
ltoes -20.7174
451
root 0.215893 14.1713 -6.47689 378.216 6.20631 726.549
lowerback 38.44 -0.222175 0.848184
upperback 8.43979 -0.0826644 -1.88325
thorax -9.4639 0.0248274 -2.432
lowerneck -30.4543 12.9805 7.28536
upperneck 16.9251 20.1095 -19.1527
head 13.7429 7.04447 -4.16421
rclavicle -1.82882e-014 2.38542e-015
rhumerus -29.1263 50.579 -86.3098
rradius 59.5229
rwrist -87.4122
rhand -4.40198 -37.5594
rfingers 7.12502
rthumb 21.3679 -786.401
lclavicle -1.82882e-014 2.38542e-015
lhumerus 108.992 -70.4375 -18.0945
lradius 53.6287
lwrist -5.50733
lhand -15.6645 -15.471
lfingers 7.12502
lthumb 10.5238 14.2456
rfemur -39.9875 -0.188502 -9.27702
rtibia 63.5937
rfoot -29.3396 -23.8922
rtoes -29.8243
lfemur -58.5995 9.40768 -13.2486
ltibia 69.6497
lfoot -21.5427 1.96946
ltoes -20.8725
452
root 0.415729 14.2355 -6.39603 378.489 6.24424 725.823
lowerback 37.9467 0.0214991 0.943341
upperback 8.34501 0.223128 -2.04466
thorax -9.38966 0.160922 -2.77574
lowerneck -30.3872 13.1004 7.29685
upperneck 16.9189 20.2104 -18.9491
head 13.7078 7.11883 -4.06196
rclavicle 3.97569e-015 -9.93923e-015
rhumerus -29.774 50.4465 -87.1649
rradius 58.5484
rwrist -87.2274
rhand -4.03132 -37.448
rfingers 7.12502
rthumb 21.7239 -786.249
lclavicle 3.97569e-015 -9.93923e-015
lhumerus 111.537 -70.5254 -20.6794
lradius 53.9248
lwrist -5.10489
lhand -14.5056 -16.6107
lfingers 7.12502
lthumb 11.6416 13.0459
rfemur -39.2108 0.297892 -8.85432
rtibia 62.0056
rfoot -28.7818 -24.8078
rtoes -28.7187
lfemur -58.6447 9.00111 -13.1377
ltibia 69.9256
lfoot -22.2525 2.18731
ltoes -19.728
